<svg xmlns="http://www.w3.org/2000/svg" version="1.1" xmlns:xlink="http://www.w3.org/1999/xlink" viewBox="0 0 4.6678691375707615 2.659179686812445"><g transform="matrix(1,0,0,1,0.29126908371777294,0.8345898434062227)"><rect width="4.6678691375707615" height="4.6678691375707615" x="-0.29126908371777294" y="-1.8389345687853809" fill="#ffffff"></rect><g transform="matrix(-1,0,0,1,6.580803138103966,0)" clip-path="url(#SvgjsClipPath1002)"><g clip-path="url(#bed649392-fe0e-4430-921d-9461d5427afe17e2adb8-9f96-4fb2-8920-6dde104595f2)"><path d=" M 3.2912268614634796 -0.542785098636255 L 3.2912268614634796 -0.5433408285345753 L 3.2904185270659227 -0.5430377031354915 L 3.2895596717685187 -0.5433408285345753 L 3.2895596717685187 -0.542785098636255 L 2.49547216796875 -0.2809857956275769 L 2.49547216796875 0.5498304023611751 C 2.49547216796875 1.2984996171982266 3.250911183385339 1.521903036322961 3.2895596717685187 1.5328155506899765 L 3.2895596717685187 1.5333207596884497 L 3.2904185270659227 1.5330681551892131 C 3.2906863048622084 1.5331576011861516 3.290955800856888 1.5332418186844894 3.2912268614634796 1.5333207596884493 L 3.2912268614634796 1.5328155506899765 C 3.3298753498466596 1.521903036322961 4.085314365263248 1.2984996171982266 4.085314365263248 0.5498304023611751 L 4.085314365263248 -0.2809857956275768 Z" fill="#2c0b40" transform="matrix(1,0,0,1,0,0)" fill-rule="nonzero"></path></g><g clip-path="url(#bed649392-fe0e-4430-921d-9461d5427afe17e2adb8-9f96-4fb2-8920-6dde104595f2)"><path d=" M 2.49547216796875 -0.28093527472772944 L 3.2912268614634796 -0.5432903076347277 L 3.2912268614634796 1.5333207596884497 C 3.2912268614634796 1.5333207596884497 2.49547216796875 1.3182027681386712 2.49547216796875 0.5498809232610224 Z" fill="#8321bf" transform="matrix(1,0,0,1,0,0)" fill-rule="nonzero"></path></g><g clip-path="url(#bed649392-fe0e-4430-921d-9461d5427afe17e2adb8-9f96-4fb2-8920-6dde104595f2)"><path d=" M 2.49547216796875 -0.28093527472772944 L 3.2912268614634796 -0.5432903076347277 L 3.2912268614634796 0.45692246754200116 L 2.49547216796875 0.5498809232610224 Z" fill="#55306c" transform="matrix(1,0,0,1,0,0)" fill-rule="nonzero"></path></g><g clip-path="url(#bed649392-fe0e-4430-921d-9461d5427afe17e2adb8-9f96-4fb2-8920-6dde104595f2)"><path d=" M 4.085364886163096 -0.28093527472772944 L 3.2896101926683663 -0.5432903076347277 L 3.2896101926683663 1.5333207596884497 C 3.2896101926683663 1.5333207596884497 4.085364886163096 1.3182027681386712 4.085364886163096 0.5498809232610224 Z" fill="#2c0b40" transform="matrix(1,0,0,1,0,0)" fill-rule="nonzero"></path></g><g clip-path="url(#bed649392-fe0e-4430-921d-9461d5427afe17e2adb8-9f96-4fb2-8920-6dde104595f2)"><path d=" M 4.085364886163096 -0.28093527472772944 L 3.2896101926683663 -0.5432903076347277 L 3.2896101926683663 0.45459850614902564 L 4.085364886163096 0.5498809232610224 Z" fill="#571680" transform="matrix(1,0,0,1,0,0)" fill-rule="nonzero"></path></g><g clip-path="url(#bed649392-fe0e-4430-921d-9461d5427afe17e2adb8-9f96-4fb2-8920-6dde104595f2)"><path d=" M 3.2904185270659227 1.4152028958454763 C 3.153708972079145 1.3684710634867292 2.6079316910288264 1.144663477163216 2.6079316910288264 0.5498304023611751 L 2.6079316910288264 -0.17716534644138737 L 3.2904185270659227 -0.40324637325802837 L 3.972905363103019 -0.1771653464413871 L 3.972905363103019 0.5498304023611753 C 3.972905363103019 1.144663477163216 3.427128082052701 1.3684710634867292 3.2904185270659227 1.4152028958454763 Z" fill="none" transform="matrix(1,0,0,1,0,0)" fill-rule="nonzero" stroke-dasharray="none" stroke-miterlimit="10" stroke-linejoin="miter" stroke-linecap="butt" stroke-width="0.07497301537338448" stroke="#c998ff"></path></g></g><g><path d=" M 0.09 0.9899999999999999 L 0.09 0.9659999999999999 L 0.2115 0.9059999999999999 L 0.2115 0.08399999999999985 L 0.09 0.02399999999999991 L 0.09 -1.1102230246251565e-16 L 0.4905 -1.1102230246251565e-16 L 0.4905 0.02399999999999991 L 0.369 0.08399999999999985 L 0.369 0.9059999999999999 L 0.4905 0.9659999999999999 L 0.4905 0.9899999999999999 L 0.09 0.9899999999999999 M 0.369 0.4844999999999998 L 0.783 0.07499999999999984 L 0.6765 0.02399999999999991 L 0.6765 -1.1102230246251565e-16 L 1.0005 -1.1102230246251565e-16 L 1.0005 0.02399999999999991 L 0.906 0.06149999999999989 L 0.522 0.43799999999999983 L 0.984 0.9254999999999999 L 1.0785 0.9659999999999999 L 1.0785 0.9899999999999999 L 0.834 0.9899999999999999 L 0.369 0.4844999999999998 M 1.211991943359375 0.9899999999999999 L 1.211991943359375 0.9659999999999999 L 1.333491943359375 0.9059999999999999 L 1.333491943359375 0.08399999999999985 L 1.211991943359375 0.02399999999999991 L 1.211991943359375 -1.1102230246251565e-16 L 1.631991943359375 -1.1102230246251565e-16 Q 1.808991943359375 -1.1102230246251565e-16 1.916241943359375 0.06449999999999989 Q 2.023491943359375 0.1289999999999999 2.023491943359375 0.26849999999999985 Q 2.023491943359375 0.35099999999999987 1.967241943359375 0.41474999999999984 Q 1.9109919433593752 0.4784999999999998 1.814991943359375 0.5152499999999999 Q 1.718991943359375 0.5519999999999998 1.595991943359375 0.5519999999999998 L 1.490991943359375 0.5519999999999998 L 1.490991943359375 0.9059999999999999 L 1.6289919433593751 0.9659999999999999 L 1.6289919433593751 0.9899999999999999 L 1.211991943359375 0.9899999999999999 M 1.490991943359375 0.0824999999999999 L 1.490991943359375 0.4724999999999999 L 1.6049919433593751 0.4724999999999999 Q 1.7234919433593752 0.4724999999999999 1.790991943359375 0.41849999999999987 Q 1.858491943359375 0.3644999999999998 1.858491943359375 0.28049999999999986 Q 1.858491943359375 0.17549999999999988 1.790241943359375 0.1289999999999999 Q 1.721991943359375 0.0824999999999999 1.5944919433593752 0.0824999999999999 L 1.490991943359375 0.0824999999999999" fill="#231f20" fill-rule="nonzero"></path></g><g></g></g><defs><clipPath id="SvgjsClipPath1002"><path d=" M 2.49547216796875 -0.54332075968845 h 1.5898588021664661 v 2.0766415193768997 h -1.5898588021664661 Z"></path></clipPath><clipPath id="bed649392-fe0e-4430-921d-9461d5427afe17e2adb8-9f96-4fb2-8920-6dde104595f2"><path d=" M 2.444951268121456 -0.5938112074820218 L 4.13588578601039 -0.5938112074820218 L 4.13588578601039 1.5838416595357439 L 2.444951268121456 1.5838416595357439 Z"></path></clipPath></defs></svg>