<svg xmlns="http://www.w3.org/2000/svg" version="1.1" xmlns:xlink="http://www.w3.org/1999/xlink" xmlns:svgjs="http://svgjs.dev/svgjs" width="1500" height="1500" viewBox="0 0 1500 1500"><rect width="1500" height="1500" fill="#ffffff"></rect><g transform="matrix(0.6666666666666666,0,0,0.6666666666666666,249.39393939393938,435.99032258064517)"><svg viewBox="0 0 396 248" data-background-color="#ffffff" preserveAspectRatio="xMidYMid meet" height="939" width="1500" xmlns="http://www.w3.org/2000/svg" xmlns:xlink="http://www.w3.org/1999/xlink"><g id="tight-bounds" transform="matrix(1,0,0,1,0.2400000000000091,0.4000000000000057)"><svg viewBox="0 0 395.52 247.2" height="247.2" width="395.52"><g><svg></svg></g><g><svg viewBox="0 0 395.52 247.2" height="247.2" width="395.52"><g transform="matrix(1,0,0,1,98.45976,47.215199999999996)"><svg viewBox="0 0 198.60047999999998 152.7696" height="152.7696" width="198.60047999999998"><g><svg viewBox="0 0 198.60047999999998 152.7696" height="152.7696" width="198.60047999999998"><g><svg viewBox="0 0 198.60047999999998 152.7696" height="152.7696" width="198.60047999999998"><g id="textblocktransform"><svg viewBox="0 0 198.60047999999998 152.7696" height="152.7696" width="198.60047999999998" id="textblock"><g><svg viewBox="0 0 198.60047999999998 152.7696" height="152.7696" width="198.60047999999998"><g transform="matrix(1,0,0,1,0,0)"><svg width="198.60047999999998" viewBox="1.7999999999999998 -28 36.400000000000006 28" height="152.7696" data-palette-color="#3f8c00"><path d="M16.5-4L18-4Q18.2-3.2 18.2-2L18.2-2Q18.2-0.85 18 0L18 0 14 0Q13.8-0.85 13.8-2L13.8-2Q13.8-3.2 14-4L14-4 12.5-4Q12.3-4.85 12.3-6L12.3-6Q12.3-7.2 12.5-8L12.5-8 9.5-8Q9.3-8.85 9.3-10L9.3-10Q9.3-11.2 9.5-12L9.5-12 6-12Q6.2-11.2 6.2-10L6.2-10Q6.2-8.85 6-8L6-8Q6.2-7.2 6.2-6L6.2-6Q6.2-4.85 6-4L6-4Q6.2-3.2 6.2-2L6.2-2Q6.2-0.85 6 0L6 0 2 0Q1.8-0.85 1.8-2L1.8-2Q1.8-3.2 2-4L2-4Q1.8-4.85 1.8-6L1.8-6Q1.8-7.2 2-8L2-8Q1.8-8.85 1.8-10L1.8-10Q1.8-11.2 2-12L2-12Q1.8-12.85 1.8-14L1.8-14Q1.8-15.2 2-16L2-16Q1.8-16.85 1.8-18L1.8-18Q1.8-19.2 2-20L2-20Q1.8-20.85 1.8-22L1.8-22Q1.8-23.2 2-24L2-24Q1.8-24.85 1.8-26L1.8-26Q1.8-27.2 2-28L2-28 6-28Q6.2-27.2 6.2-26L6.2-26Q6.2-24.85 6-24L6-24Q6.2-23.2 6.2-22L6.2-22Q6.2-20.85 6-20L6-20Q6.2-19.2 6.2-18L6.2-18Q6.2-16.85 6-16L6-16 9.5-16Q9.3-16.85 9.3-18L9.3-18Q9.3-19.2 9.5-20L9.5-20 12.5-20Q12.3-20.85 12.3-22L12.3-22Q12.3-23.2 12.5-24L12.5-24 14-24Q13.8-24.85 13.8-26L13.8-26Q13.8-27.2 14-28L14-28 18-28Q18.2-27.2 18.2-26L18.2-26Q18.2-24.85 18-24L18-24 16.5-24Q16.7-23.2 16.7-22L16.7-22Q16.7-20.85 16.5-20L16.5-20 13.5-20Q13.7-19.2 13.7-18L13.7-18Q13.7-16.85 13.5-16L13.5-16 11-16Q11.2-15.2 11.2-14L11.2-14Q11.2-12.85 11-12L11-12 13.5-12Q13.7-11.2 13.7-10L13.7-10Q13.7-8.85 13.5-8L13.5-8 16.5-8Q16.7-7.2 16.7-6L16.7-6Q16.7-4.85 16.5-4L16.5-4ZM38.2-22Q38.2-20.85 38-20L38-20Q38.2-19.2 38.2-18L38.2-18Q38.2-16.85 38-16L38-16 36-16Q36.2-15.2 36.2-14L36.2-14Q36.2-12.85 36-12L36-12 26-12Q26.2-11.2 26.2-10L26.2-10Q26.2-8.85 26-8L26-8Q26.2-7.2 26.2-6L26.2-6Q26.2-4.85 26-4L26-4Q26.2-3.2 26.2-2L26.2-2Q26.2-0.85 26 0L26 0 22 0Q21.8-0.85 21.8-2L21.8-2Q21.8-3.2 22-4L22-4Q21.8-4.85 21.8-6L21.8-6Q21.8-7.2 22-8L22-8Q21.8-8.85 21.8-10L21.8-10Q21.8-11.2 22-12L22-12Q21.8-12.85 21.8-14L21.8-14Q21.8-15.2 22-16L22-16Q21.8-16.85 21.8-18L21.8-18Q21.8-19.2 22-20L22-20Q21.8-20.85 21.8-22L21.8-22Q21.8-23.2 22-24L22-24Q21.8-24.85 21.8-26L21.8-26Q21.8-27.2 22-28L22-28 36-28Q36.2-27.2 36.2-26L36.2-26Q36.2-24.85 36-24L36-24 38-24Q38.2-23.2 38.2-22L38.2-22ZM34-16Q33.8-16.85 33.8-18L33.8-18Q33.8-19.2 34-20L34-20Q33.8-20.85 33.8-22L33.8-22Q33.8-23.2 34-24L34-24 26-24Q26.2-23.2 26.2-22L26.2-22Q26.2-20.85 26-20L26-20Q26.2-19.2 26.2-18L26.2-18Q26.2-16.85 26-16L26-16 34-16Z" opacity="1" transform="matrix(1,0,0,1,0,0)" fill="#000000" class="wordmark-text-0" data-fill-palette-color="primary" id="text-0"></path></svg></g></svg></g></svg></g></svg></g></svg></g></svg></g><path d="M280.761 41.215L280.761 0 33.561 0 33.561 247.2 280.761 247.2 280.761 205.985 266.984 205.985 266.984 233.423 47.338 233.423 47.338 13.777 266.984 13.777 266.984 41.215Z" fill="#000000" stroke="transparent" data-fill-palette-color="tertiary"></path></svg></g><defs></defs></svg><rect width="395.52" height="247.2" fill="none" stroke="none" visibility="hidden"></rect></g></svg></g></svg>